<svg xmlns="http://www.w3.org/2000/svg" width="3780" height="827" viewBox="0 0 3780 827" clip-rule="evenodd" fill-rule="evenodd" stroke-linecap="round" stroke-linejoin="round" stroke-miterlimit="1.5">
    <rect width="3779.5" height="826.8" fill="#040204" transform="translate(1889.8,413.4) translate(-1889.8,-413.4)" />
    <path d="M1039.3 125.6l119.7 204h-239.4l119.7-204Z" fill="#272f38" transform="translate(1039.3,227.6) translate(-1039.3,-227.6)" />
    <path d="M1337.2 125.6l119.7 204h-239.3l119.6-204Z" fill="#272f38" transform="translate(1337.2,227.6) translate(-1337.2,-227.6)" />
    <path d="M1635.2 125.6l119.6 204h-239.3l119.7-204Z" fill="#272f38" transform="translate(1635.2,227.6) translate(-1635.2,-227.6)" />
    <path d="M1933.1 125.6l119.7 204h-239.4l119.7-204Z" fill="#272f38" transform="translate(1933.1,227.6) translate(-1933.1,-227.6)" />
    <path d="M2231 125.6l119.7 204h-239.4l119.7-204Z" fill="#272f38" transform="translate(2231,227.6) translate(-2231,-227.6)" />
    <path d="M2529 125.6l119.6 204h-239.3l119.7-204Z" fill="#272f38" transform="translate(2529,227.6) translate(-2529,-227.6)" />
    <path d="M1008.8 123.9l-116.9 205.7l-119.7-207.3l236.6 1.6Z" fill="#272f38" transform="translate(890.5,226) translate(-890.5,-226)" />
    <path d="M1306.7 123.9l-116.9 205.7l-119.7-207.3l236.6 1.6Z" fill="#272f38" transform="translate(1188.4,226) translate(-1188.4,-226)" />
    <path d="M1604.6 123.9l-116.9 205.7l-119.6-207.3l236.5 1.6Z" fill="#272f38" transform="translate(1486.3,226) translate(-1486.3,-226)" />
    <path d="M1902.6 123.9l-116.9 205.7l-119.7-207.3l236.6 1.6Z" fill="#272f38" transform="translate(1784.3,226) translate(-1784.3,-226)" />
    <path d="M2200.5 123.9l-116.9 205.7l-119.7-207.3l236.6 1.6Z" fill="#272f38" transform="translate(2082.2,226) translate(-2082.2,-226)" />
    <path d="M2498.4 123.9l-116.9 205.7l-119.6-207.3l236.5 1.6Z" fill="#272f38" transform="translate(2380.1,226) translate(-2380.1,-226)" />
    <path d="M2796.4 123.9l-116.9 205.7l-119.7-207.3l236.6 1.6Z" fill="#272f38" transform="translate(2678.1,226) translate(-2678.1,-226)" />
    <g transform="translate(145.5,417.2) translate(-119.7,-291.7)">
        <path id="_a0" d="M145.5 125.6l119.7 204h-239.4l119.7-204Z" fill="#272f38" transform="translate(119.7,102) translate(-145.5,-227.6)" style="fill: rgb(26, 117, 187);" />
        <path id="_a1" d="M145.5 504.8l119.7 204.1h-239.4l119.7-204.1Z" fill="#272f38" transform="translate(119.7,481.3) translate(-145.5,-606.9)" style="fill: rgb(26, 117, 187);" />
    </g>
    <g transform="translate(443.4,417.2) translate(-119.7,-291.7)">
        <path id="_a2" d="M443.4 125.6l119.7 204h-239.3l119.6-204Z" fill="#272f38" transform="translate(119.7,102) translate(-443.4,-227.6)" style="fill: rgb(26, 117, 187);" />
        <path id="_a3" d="M443.4 504.8l119.7 204.1h-239.3l119.6-204.1Z" fill="#272f38" transform="translate(119.7,481.3) translate(-443.4,-606.9)" style="fill: rgb(26, 117, 187);" />
    </g>
    <g transform="translate(741.4,417.2) translate(-119.7,-291.7)">
        <path id="_a4" d="M741.4 125.6l119.7 204h-239.4l119.7-204Z" fill="#272f38" transform="translate(119.7,102) translate(-741.4,-227.6)" style="fill: rgb(26, 117, 187);" />
        <path id="_a5" d="M741.4 504.8l119.7 204.1h-239.4l119.7-204.1Z" fill="#272f38" transform="translate(119.7,481.3) translate(-741.4,-606.9)" style="fill: rgb(26, 117, 187);" />
    </g>
    <path id="_a6" d="M1039.3 504.8l119.7 204.1h-239.4l119.7-204.1Z" fill="#272f38" transform="translate(1039.3,606.9) translate(-1039.3,-606.9)" style="fill: rgb(26, 117, 187);" />
    <path id="_a7" d="M1337.2 504.8l119.7 204.1h-239.3l119.6-204.1Z" fill="#272f38" transform="translate(1337.2,606.9) translate(-1337.2,-606.9)" style="fill: rgb(26, 117, 187);" />
    <path id="_a8" d="M1635.2 504.8l119.6 204.1h-239.3l119.7-204.1Z" fill="#272f38" transform="translate(1635.2,606.9) translate(-1635.2,-606.9)" style="fill: rgb(26, 117, 187);" />
    <path id="_a9" d="M1933.1 504.8l119.7 204.1h-239.4l119.7-204.1Z" fill="#272f38" transform="translate(1933.1,606.9) translate(-1933.1,-606.9)" style="fill: rgb(26, 117, 187);" />
    <path id="_a10" d="M2231 504.8l119.7 204.1h-239.4l119.7-204.1Z" fill="#272f38" transform="translate(2231,606.9) translate(-2231,-606.9)" style="fill: rgb(26, 117, 187);" />
    <path id="_a11" d="M2529 504.8l119.6 204.1h-239.3l119.7-204.1Z" fill="#272f38" transform="translate(2529,606.9) translate(-2529,-606.9)" style="fill: rgb(26, 117, 187);" />
    <g transform="translate(294.6,415.6) translate(-118.3,-293.3)">
        <path id="_a12" d="M412.9 123.9l-116.9 205.7l-119.6-207.3l236.5 1.6Z" fill="#272f38" transform="translate(118.3,103.6) translate(-294.6,-226)" style="fill: rgb(26, 117, 187);" />
        <path id="_a13" d="M412.9 503.2l-116.9 205.7l-119.6-207.3l236.5 1.6Z" fill="#272f38" transform="translate(118.3,482.9) translate(-294.6,-605.2)" style="fill: rgb(26, 117, 187);" />
    </g>
    <g transform="translate(592.6,415.6) translate(-118.3,-293.3)">
        <path id="_a14" d="M710.8 123.9l-116.8 205.7l-119.7-207.3l236.5 1.6Z" fill="#272f38" transform="translate(118.3,103.6) translate(-592.6,-226)" style="fill: rgb(26, 117, 187);" />
        <path id="_a15" d="M710.8 503.2l-116.8 205.7l-119.7-207.3l236.5 1.6Z" fill="#272f38" transform="translate(118.3,482.9) translate(-592.6,-605.2)" style="fill: rgb(26, 117, 187);" />
    </g>
    <path id="_a16" d="M1008.8 503.2l-116.9 205.7l-119.7-207.3l236.6 1.6Z" fill="#272f38" transform="translate(890.5,605.2) translate(-890.5,-605.2)" style="fill: rgb(26, 117, 187);" />
    <path id="_a17" d="M1306.7 503.2l-116.9 205.7l-119.7-207.3l236.6 1.6Z" fill="#272f38" transform="translate(1188.4,605.2) translate(-1188.4,-605.2)" style="fill: rgb(26, 117, 187);" />
    <path id="_a18" d="M1604.6 503.2l-116.9 205.7l-119.6-207.3l236.5 1.6Z" fill="#272f38" transform="translate(1486.3,605.2) translate(-1486.3,-605.2)" style="fill: rgb(26, 117, 187);" />
    <path id="_a19" d="M1902.6 503.2l-116.9 205.7l-119.7-207.3l236.6 1.6Z" fill="#272f38" transform="translate(1784.3,605.2) translate(-1784.3,-605.2)" style="fill: rgb(26, 117, 187);" />
    <path id="_a20" d="M2200.5 503.2l-116.9 205.7l-119.7-207.3l236.6 1.6Z" fill="#272f38" transform="translate(2082.2,605.2) translate(-2082.2,-605.2)" style="fill: rgb(26, 117, 187);" />
    <path id="_a21" d="M2498.4 503.2l-116.9 205.7l-119.6-207.3l236.5 1.6Z" fill="#272f38" transform="translate(2380.1,605.2) translate(-2380.1,-605.2)" style="fill: rgb(26, 117, 187);" />
    <path id="_a22" d="M2796.4 503.2l-116.9 205.7l-119.7-207.3l236.6 1.6Z" fill="#272f38" transform="translate(2678.1,605.2) translate(-2678.1,-605.2)" style="fill: rgb(26, 117, 187);" />
    <g id="_a23" visibility="visible" transform="translate(405.6,227.6) translate(-405.6,-227.6)">
        <g transform="translate(405.6,227.6) translate(-260.1,-50.9)">
            <path d="M145.5 258.5h47v17.8h21.3v-17.8h11.4v-19.9h-11.4v-61.9h-24.9l-43.4 59.1v22.7Zm22.1-19.9l24.9-34.1v34.1h-24.9Z" fill="#fff" fill-rule="nonzero" transform="translate(39.8,49.8) translate(-185.4,-226.5)" />
            <path d="M233 262.8c2.7 3 5.9 5.6 9.6 7.8c6.2 4 15.6 7.9 28.1 7.9c22.8 0 37.8-15 37.8-34.2c0-19.3-14.3-33.4-34.9-33.4c-4.4 0-8 .8-10.4 1.8c-1.6 .4-2.8 1-3.8 1.7l.7-17.8h42v-19.9h-60.5l-3.6 58.4l15 2.1c1.1-1.4 2.5-2.7 4.1-3.8c2.7-2.2 6.7-4 12.2-4c10.8 0 17.1 6.4 17.1 14.9c0 8.6-6.4 15-17.8 15c-6.4 0-11.7-2.6-15.5-5.3c-2.1-1.6-4.1-3.4-5.8-5.4l-14.3 14.2Z" fill="#fff" fill-rule="nonzero" transform="translate(125.2,50.9) translate(-270.7,-227.6)" />
            <path d="M354 276.3h21.3v-65.4l32.1 39.8l32-39.8v65.4h21.3v-99.6h-19.2l-34.1 42.7l-34.2-42.7h-19.2v99.6Z" fill="#fff" fill-rule="nonzero" transform="translate(261.8,49.8) translate(-407.4,-226.5)" />
            <rect width="21.3" height="99.6" fill="#fff" fill-rule="nonzero" transform="translate(352.2,49.8) translate(-10.7,-49.8)" />
            <path d="M534.7 276.3h21.4v-61.9l48.3 61.9h19.3v-99.6h-21.4v61.9l-48.4-61.9h-19.2v99.6Z" fill="#fff" fill-rule="nonzero" transform="translate(433.7,49.8) translate(-579.2,-226.5)" />
            <path d="M642.9 266.4c0 6.4 5 11.4 11.4 11.4c6.4 0 11.3-5 11.3-11.4c0-6.4-4.9-11.4-11.3-11.4c-6.4 0-11.4 5-11.4 11.4Z" fill="#fff" fill-rule="nonzero" transform="translate(508.7,89.7) translate(-654.3,-266.4)" />
        </g>
    </g>
    <g id="_a24" visibility="visible" transform="translate(1784.1,413) translate(-1043.1,-371.8)">
        <path d="M741 41.2v743.6" fill="none" stroke="#fff" stroke-width="9px" transform="translate(0,371.8) translate(-741,-413)" />
        <path d="M2827.2 41.2v743.6" fill="none" stroke="#fff" stroke-width="9px" transform="translate(2086.2,371.8) translate(-2827.2,-413)" />
    </g>
    <g id="_a25" visibility="visible" transform="translate(3349.7,606.9) translate(-3349.7,-606.9)">
        <path d="M2996.6 606.9c0-18.5 14.2-32.7 32.7-32.7c18.4 0 32.6 14.2 32.6 32.7c0 18.4-14.2 32.6-32.6 32.6c-18.5 0-32.7-14.2-32.7-32.6Zm-43.1 0c0 39.3 31.8 70.9 75.8 70.9c43.9 0 75.8-31.6 75.8-70.9c-0.1-39.4-31.9-71-75.8-71c-44 0-75.8 31.6-75.8 71Z" fill="#1a75bb" fill-rule="nonzero" transform="translate(3029.3,606.9) translate(-3029.3,-606.9)" />
        <path d="M3142.5 674h43.2v-95h35.5v-39.3h-114.2v39.3h35.5v95Z" fill="#1a75bb" fill-rule="nonzero" transform="translate(3164.1,606.9) translate(-3164.1,-606.9)" />
        <path d="M3235 674h43.1v-48.9h40.3v48.9h43.2v-134.3h-43.2v47h-40.3v-47h-43.1v134.3Z" fill="#1a75bb" fill-rule="nonzero" transform="translate(3298.3,606.9) translate(-3298.3,-606.9)" />
        <path d="M3383.4 674h108.4v-35.5h-65.3v-16.3h48v-30.7h-48v-16.3h63.4v-35.5h-106.5v134.3Z" fill="#1a75bb" fill-rule="nonzero" transform="translate(3437.6,606.9) translate(-3437.6,-606.9)" />
        <path d="M3508.1 674h43.2v-38.4h14.4l19.1 38.4h45.1l-25.9-48c3.9-2.3 7.3-5.1 10.6-8.8c5.2-6.1 10.5-15.5 10.5-29.5c0-26.9-21.1-48-50.8-48h-66.2v134.3Zm43.2-74.8v-23h18.2c7.7 0 12.5 4.8 12.5 11.5c0 6.7-4.8 11.5-12.5 11.5h-18.2Z" fill="#1a75bb" fill-rule="nonzero" transform="translate(3569,606.9) translate(-3569,-606.9)" />
        <path d="M3633.8 654.8c4 4.4 9 8.3 14.5 11.5c9.8 6 23.6 11.5 42.1 11.5c34.5 0 55.6-21.1 55.6-44.1c0-43.2-60.4-40.5-60.4-55.6c0-3.9 3.8-6.7 11.5-6.7c6.7 0 11.5 2.5 15.1 4.8c2 1.3 3.7 3 5 4.8l25-25.9c-3.3-3.7-7.3-6.8-12.1-9.6c-8.3-4.8-20.4-9.6-37.8-9.6c-33.8 0-53.7 19.9-53.7 42.2c0 43.1 60.4 40.5 60.4 55.6c0 4.8-3.6 8.7-13.4 8.7c-7.7 0-14.4-3.1-19.2-6.8c-2.9-1.9-5.4-4.2-7.7-6.7l-24.9 25.9Z" fill="#1a75bb" fill-rule="nonzero" transform="translate(3689.9,606.9) translate(-3689.9,-606.9)" />
    </g>
    <g id="_a26" visibility="visible" transform="translate(3349.9,227.6) translate(-3349.9,-227.6)">
        <rect width="46.4" height="136.8" fill="#fff" fill-rule="nonzero" transform="translate(2985,220) translate(-23.2,-68.4)" />
        <path d="M3149 288.4h97.4v-36.1h-54.1v-18.6h40.9v-29.6h-40.9v-16.7h48.9v-35.8h-92.2v136.8Z" fill="#fff" fill-rule="nonzero" transform="translate(3197.7,220) translate(-3197.7,-220)" />
        <path d="M3341.8 288.4h55.1l-49.3-71.9l43.8-64.9h-52.3l-20.7 35.9l-21.6-35.9h-55.5l46.4 65.5l-62 90.3c0 0 30.8-16.4 70.2-22.8c.3 .2 21.2-36.2 21.2-36.2l24.7 40Z" fill="#fff" fill-rule="nonzero" transform="translate(3311.3,229.5) translate(-3311.3,-229.5)" />
        <rect width="46.4" height="136.8" fill="#fff" fill-rule="nonzero" transform="translate(3420,220) translate(-23.2,-68.4)" />
        <path d="M3610.7 288.4h43.6l-1.9-65.3h.8l24.5 43.5l13.3 21.8h47v-136.8h-43.7l1.9 69.4h-0.7l-39.1-69.4h-45.7v136.8Z" fill="#fff" fill-rule="nonzero" transform="translate(3674.3,220) translate(-3674.3,-220)" />
        <path d="M3116.2 216.7c6-2.3 10.9-5.8 14.6-10.6c3.6-4.8 5.5-10.8 5.5-18.2c0-7.8-1.8-14.2-5.3-19c-3.4-4.8-7.8-8.5-13.1-11c-5.3-2.5-11-4.2-17.3-5c-6.2-0.9-12.1-1.3-17.6-1.3h-56.3v136.8h62c6.7 0 13.3-0.7 19.7-2.1c6.3-1.3 12-3.6 17-6.7c4.9-3.2 8.9-7.3 11.9-12.4c3.1-5.1 4.6-11.3 4.6-18.8c0-4.3-0.7-8.1-2.2-11.6c-1.4-3.5-3.3-6.5-5.8-9.2c-2.4-2.6-5.2-4.8-8.3-6.5c-3.1-1.8-6.2-3-9.4-3.8v-0.6Zm-34.8 17c1.4 0 2.9 .1 4.5 .4c1.7 .3 3.2 .7 4.6 1.4c1.4 .8 2.6 1.7 3.6 2.8c.9 1.2 1.4 2.7 1.4 4.5c0 3.1-1.1 5.4-3.4 7c-2.2 1.6-5.2 2.5-8.8 2.5h-13.7v-18.6h11.8Zm-0.4-46.4c3.6 0 6.5 .7 8.7 2c2.2 1.3 3.3 3.2 3.3 5.8c0 3.1-1 5.4-3.1 6.8c-2.1 1.5-4.7 2.3-7.9 2.3h-12.4v-16.9h11.4Z" fill="#fff" fill-rule="nonzero" transform="translate(3084.3,220) translate(-3084.3,-220)" />
        <path d="M3456.7 249.2c3.9 9 9.2 16.7 16 23c6.7 6.4 14.7 11.3 24 14.8c9.3 3.5 19.3 5.2 30.1 5.2c10.8 0 20.9-1.7 30.2-5.2c9.2-3.5 17.3-8.4 24.1-14.8c6.8-6.3 12.2-14 16-23c3.9-9.1 5.8-19 5.8-30c0-10.9-1.9-20.8-5.8-29.6c-3.8-8.8-9.2-16.4-16-22.5c-6.8-6.2-14.9-11-24.1-14.3c-9.3-3.4-19.4-5-30.2-5c-10.8 0-20.8 1.6-30.1 5c-9.3 3.3-17.3 8.1-24 14.3c-6.8 6.1-12.1 13.7-16 22.5c-3.8 8.8-5.8 18.7-5.8 29.6c0 11 2 20.9 5.8 30Zm45.1-42.7c1.4-3.6 3.2-6.7 5.6-9.2c2.4-2.5 5.3-4.4 8.6-5.8c3.4-1.4 7-2.1 10.8-2.1c3.9 .1 7.5 .8 10.8 2.3c3.2 1.4 6.1 3.4 8.5 5.9c2.5 2.6 4.4 5.7 5.7 9.3c1.4 3.7 2.1 7.8 2.1 12.1c0 4.5-0.7 8.7-2.1 12.4c-1.3 3.7-3.2 6.9-5.7 9.6c-2.4 2.7-5.3 4.7-8.5 6.2c-3.3 1.4-6.9 2.2-10.8 2.1c-3.8 0-7.4-0.8-10.8-2.3c-3.3-1.5-6.2-3.6-8.6-6.3c-2.4-2.8-4.2-6-5.6-9.7c-1.3-3.8-2-7.9-2-12.4c0-4.4 .7-8.4 2-12.1Z" fill="#fff" fill-rule="nonzero" transform="translate(3526.9,220) translate(-3526.9,-220)" />
    </g>
    <g id="_a27" visibility="visible" transform="translate(1784.3,605.2) translate(-1784.3,-605.2)">
        <path d="M1504.1 655h21.4v-99.5h-17.8c-1.2 2.1-2.6 4.1-4.4 5.9c-3.3 3.3-8.3 6.6-16.2 7.6v13.5h17v72.5Z" fill="#fff" fill-rule="nonzero" transform="translate(1506.3,605.2) translate(-1506.3,-605.2)" />
        <path d="M1582.3 612.4c9.3 0 15 5.5 15 12.8c0 7.2-5.7 12.8-15 12.8c-9.2 0-14.9-5.6-14.9-12.8c0-7.3 5.7-12.8 15-12.8Zm0-39.9c7.3 0 12.1 5 12.1 10.7c0 5.7-4.8 10.7-12 10.7c-7.3 0-12.1-5-12.1-10.7c0-5.7 4.8-10.7 12-10.7Zm0 84.6c22.8 0 37-14.2 37-30.5c0-9-4.1-15.1-8.2-19.1c-2.4-2.4-5.1-4.2-8.1-5.8c2.4-1.3 4.5-3 6.4-5c3.2-3.4 6.4-8.4 6.4-15.6c0-14.3-13.5-27.8-33.5-27.8c-19.9 0-33.4 13.5-33.4 27.8c0 7.2 3.2 12.2 6.4 15.6c1.9 2 4 3.7 6.4 5c-3 1.6-5.8 3.4-8.2 5.8c-4.1 4-8.1 10.1-8.1 19.1c0 16.3 14.2 30.5 36.9 30.5Z" fill="#fff" fill-rule="nonzero" transform="translate(1582.3,605.2) translate(-1582.3,-605.2)" />
        <path d="M1676.2 637.2c-10.7 0-21.3-10.6-21.3-32c0-21.3 10.6-32 21.3-32c10.7 0 21.3 10.7 21.3 32c0 21.4-10.6 32-21.3 32Zm0 19.9c22.8 0 42.7-19.9 42.7-51.9c0-32-20-51.9-42.7-51.9c-22.8 0-42.7 19.9-42.7 51.9c0 32 20 51.9 42.7 51.9Z" fill="#fff" fill-rule="nonzero" transform="translate(1676.2,605.2) translate(-1676.2,-605.2)" />
        <path d="M1770.1 655h21.3v-65.4l32 39.8l32-39.8v65.4h21.3v-99.5h-19.2l-34.1 42.6l-34.1-42.6h-19.2v99.5Z" fill="#fff" fill-rule="nonzero" transform="translate(1823.4,605.2) translate(-1823.4,-605.2)" />
        <rect width="21.3" height="99.5" fill="#fff" fill-rule="nonzero" transform="translate(1913.7,605.2) translate(-10.7,-49.8)" />
        <path d="M1950.7 655h21.3v-61.8l48.3 61.8h19.2v-99.5h-21.3v61.8l-48.3-61.8h-19.2v99.5Z" fill="#fff" fill-rule="nonzero" transform="translate(1995.1,605.2) translate(-1995.1,-605.2)" />
        <path d="M2058.7 645.1c0 6.4 5 11.3 11.4 11.3c6.4 0 11.4-4.9 11.4-11.3c0-6.4-5-11.4-11.4-11.4c-6.4 0-11.4 5-11.4 11.4Z" fill="#fff" fill-rule="nonzero" transform="translate(2070.1,645.1) translate(-2070.1,-645.1)" />
    </g>
    <script>
        <![CDATA[/*
 KeyshapeJS v1.2.0 (c) 2018-2021 Pixofield Ltd | pixofield.com/keyshapejs/mit-license */
window.KeyshapeJS=function(){function r(a){return"undefined"!==typeof a}function x(a,b){return a&&0==a.indexOf(b)}function R(a){var b={},c;for(c in a)b[c]=a[c];return b}function H(a){if(!isFinite(a))throw Error("Non-finite value");}function S(a){if(14>=a)return 16;var b=T[a];b||(b=r(da[a])?0|(a.toLowerCase().indexOf("color")==a.length-5?48:0):1);return b}function K(a){return 0<=a?Math.pow(a,1/3):-Math.pow(-a,1/3)}function ea(a,b,c,d){if(0==a)return 0==b?b=-d/c:(a=Math.sqrt(c*c-4*b*d),d=(-c+a)/(2*
b),0<=d&&1>=d?b=d:(d=(-c-a)/(2*b),b=0<=d&&1>=d?d:0)),b;var e=c/a-b*b/(a*a)/3;c=b*b*b/(a*a*a)/13.5-b*c/(a*a)/3+d/a;var n=c*c/4+e*e*e/27;b=-b/(3*a);if(0>=n){if(0==e&&0==c)return-K(d/a);a=Math.sqrt(c*c/4-n);d=Math.acos(-c/2/a);c=Math.cos(d/3);d=Math.sqrt(3)*Math.sin(d/3);a=K(a);e=2*a*c+b;if(0<=e&&1>=e)return e;e=-a*(c+d)+b;if(0<=e&&1>=e)return e;e=a*(d-c)+b;if(0<=e&&1>=e)return e}else{a=K(-c/2+Math.sqrt(n));c=K(-c/2-Math.sqrt(n));d=a+c+b;if(0<=d&&1>=d)return d;d=-(a+c)/2+b;if(0<=d&&1>=d)return d}return 0}
function fa(a,b){if(48==a&&"number"===typeof b)return"rgba("+(b>>>24)+","+(b>>>16&255)+","+(b>>>8&255)+","+(b&255)/255+")";if(64==a)return b=b.map(function(a){return a+"px"}),b.join(",");if(96==a){a="";for(var c=b.length,d=0;d<c;d+=2)a+=b[d],a+=b[d+1].join(",");return a}if(80==a){if(0==b[0])return"none";a="";c=b.length;for(d=0;d<c;)a+=U[b[d]],1==b[d]?a+="("+b[d+1]+") ":5==b[d]?(a+="("+b[d+1]+"px "+b[d+2]+"px "+b[d+3]+"px rgba("+(b[d+4]>>>24)+","+(b[d+4]>>16&255)+","+(b[d+4]>>8&255)+","+(b[d+4]&255)/
255+")) ",d+=3):a=2==b[d]?a+("("+b[d+1]+"px) "):7==b[d]?a+("("+b[d+1]+"deg) "):a+("("+(0>b[d+1]?0:b[d+1])+") "),d+=2;return a}return 32==a?b+"px":b}function y(a){return 0>=a?0:255<=a?255:a}function ha(a,b,c,d){if(16==a||32==a)return(c-b)*d+b;if(0==a)return.5>d?b:c;if(112==a)return 0>=d?b:1<=d?c:"visible";if(48==a){if("number"===typeof b&&"number"===typeof c){var e=1-d;return(y(e*(b>>>24)+d*(c>>>24))<<24|y(e*(b>>>16&255)+d*(c>>>16&255))<<16|y(e*(b>>>8&255)+d*(c>>>8&255))<<8|y(e*(b&255)+d*(c&255)))>>>
0}return.5>d?b:c}if(64==a){0==b.length&&(b=[0]);0==c.length&&(c=[0]);var n=b.length;b.length!=c.length&&(n=b.length*c.length);var q=[];for(a=0;a<n;++a){var g=b[a%b.length];var h=(c[a%c.length]-g)*d+g;0>h&&(h=0);q.push(h)}return q}if(96==a){if(b.length!=c.length)return.5>d?b:c;n=b.length;q=[];for(a=0;a<n;a+=2){if(b[a]!==c[a])return.5>d?b:c;q[a]=b[a];q[a+1]=[];for(g=0;g<b[a+1].length;++g)q[a+1].push((c[a+1][g]-b[a+1][g])*d+b[a+1][g])}return q}if(80==a){n=b.length;if(n!=c.length)return.5>d?b:c;q=[];
for(a=0;a<n;){if(b[a]!=c[a]||1==b[a])return.5>d?b:c;q[a]=b[a];q[a+1]=(c[a+1]-b[a+1])*d+b[a+1];if(5==b[a]){q[a+2]=(c[a+2]-b[a+2])*d+b[a+2];q[a+3]=(c[a+3]-b[a+3])*d+b[a+3];e=1-d;var f=b[a+4],l=c[a+4];h=e*(f>>>24)+d*(l>>>24);var m=e*(f>>16&255)+d*(l>>16&255);g=e*(f>>8&255)+d*(l>>8&255);e=e*(f&255)+d*(l&255);q[a+4]=(y(m)<<16|y(g)<<8|y(e))+16777216*(y(h)|0);a+=3}a+=2}return q}return 0}function V(a,b){a:{var c=a+b[2];var d=b[4].length;for(var e=0;e<d;++e)if(c<b[4][e]){c=e;break a}c=d-1}d=b[2];e=b[4][c-
1]-d;a=(a-e)/(b[4][c]-d-e);if(b[6]&&b[6].length>c-1)if(d=b[6][c-1],1==d[0])if(0>=a)a=0;else if(1<=a)a=1;else{e=d[1];var n=d[3];a=ea(3*e-3*n+1,-6*e+3*n,3*e,-a);a=3*a*(1-a)*(1-a)*d[2]+3*a*a*(1-a)*d[4]+a*a*a}else 2==d[0]?(d=d[1],a=Math.ceil(a*d)/d):3==d[0]&&(d=d[1],a=Math.floor(a*d)/d);return ha(b[1]&240,b[5][c-1],b[5][c],a)}function L(){u||(v=(new Date).getTime()+W)}function O(a){if(a||!E){for(var b=!1,c=0;c<w.length;++c)w[c].J(a)&&(b=!0);if(a)for(;0<J.length;)if(a=J.shift(),c=a[0],1==a[1])c.onfinish&&
(c.onfinish(),b=!0),c.I();else if(2==a[1]&&c.onloop)c.onloop();return b}}function X(){L();O(!0)&&!u?(E=!0,M(X)):E=!1}function N(){E||(E=!0,M(X))}function Y(a,b){var c=[];a.split(b).forEach(function(a){c.push(parseFloat(a))});return c}function A(a){-1==a.indexOf(",")&&(a=a.replace(" ",","));return Y(a,",")}function Z(a){a._ks||(a._ks={});if(!a._ks.transform){for(var b=a._ks.transform=[],c=0;14>=c;++c)b[c]=0;b[10]=1;b[11]=1;if(a=a.getAttribute("transform")){a=a.trim().split(") ");for(c=a.length-2;0<=
c;--c)if(x(a[c],"translate(")){for(var d=0;d<c;d++)a.shift();break}c=a.shift();x(c,"translate(")&&(c=A(c.substring(10)),b[1]=c[0],b[2]=r(c[1])?c[1]:0,c=a.shift());x(c,"rotate(")&&(c=A(c.substring(7)),b[6]=c[0],c=a.shift());x(c,"skewX(")&&(c=A(c.substring(6)),b[7]=c[0],c=a.shift());x(c,"skewY(")&&(c=A(c.substring(6)),b[8]=c[0],c=a.shift());x(c,"scale(")&&(c=A(c.substring(6)),b[10]=c[0],b[11]=r(c[1])?c[1]:c[0],c=a.shift());x(c,"translate(")&&(c=A(c.substring(10)),b[13]=c[0],b[14]=r(c[1])?c[1]:0)}}}
function aa(a){this.h=a;this.A=[];this.C=[];this.v=0;this.s=this.a=this.c=null;this.i=this.f=this.g=0;this.b=1;this.j=this.F=this.o=!1}function I(a,b,c){b=a[b];void 0===b&&(b=a[c]);return b}function ia(a){return Array.isArray(a)?a:x(a,"cubic-bezier(")?(a=a.substring(13,a.length-1).split(","),[1,parseFloat(a[0]),parseFloat(a[1]),parseFloat(a[2]),parseFloat(a[3])]):x(a,"steps(")?(a=a.substring(6,a.length-1).split(","),[a[1]&&"start"==a[1].trim()?2:3,parseFloat(a[0])]):[0]}function ja(a){a=a.trim();
return x(a,"#")?(parseInt(a.substring(1),16)<<8)+255:x(a,"rgba(")?(a=a.substring(5,a.length-1),a=a.split(","),(parseInt(a[0],10)<<24)+(parseInt(a[1],10)<<16)+(parseInt(a[2],10)<<8)+255*parseFloat(a[3])<<0):a}function ba(a){!1===a.j&&(w.push(a),a.j=!0,!1!==a.h.autoplay&&a.play());return this}function P(a){if(!0===a.j){a._cancel();var b=w.indexOf(a);-1<b&&w.splice(b,1);b=J.indexOf(a);-1<b&&J.splice(b,1);a.j=!1}return this}var Q=Error("Not in timeline list"),ca="mpath posX posY    rotate skewX skewY  scaleX scaleY  anchorX anchorY".split(" "),
ka=" translate translate    rotate skewX skewY  scale scale  translate translate".split(" "),U="none url blur brightness contrast drop-shadow grayscale hue-rotate invert opacity saturate sepia".split(" "),M=window.requestAnimationFrame||window.webkitRequestAnimationFrame||window.mozRequestAnimationFrame||window.oRequestAnimationFrame||window.msRequestAnimationFrame||null;M||(M=function(a){window.setTimeout(a,16)});var la=/apple/i.test(navigator.vendor),T={d:97,fill:48,fillOpacity:16,filter:80,height:33,
opacity:16,offsetDistance:33,stroke:48,strokeDasharray:64,strokeDashoffset:32,strokeOpacity:16,strokeWidth:32,transform:1,visibility:113,width:33},da=window.getComputedStyle(document.documentElement),E=!1,v=(new Date).getTime(),u,W=0,w=[],J=[];aa.prototype={B:function(a){var b=0;if(null!==this.c){var c=this.l();0<this.b&&null!==c&&c>=this.f?this.i?(this.c=v-this.g/this.b,this.i--,b=2):(b=1,a?this.a=c:this.a=this.s?Math.max(this.s,this.f):this.f):0>this.b&&null!==c&&c<=this.g?this.i&&Infinity!=this.f?
(this.c=v-this.f/this.b,this.i--,b=2):(this.i=0,b=1,a?this.a=c:this.a=this.s?Math.min(this.s,this.g):this.g):null!==c&&0!=this.b&&(a&&null!==this.a&&(this.c=v-this.a/this.b),this.a=null)}this.s=this.l();return b},J:function(a){a&&(this.o&&(this.o=!1,null===this.c&&(0!=this.b&&null!==this.a?(this.c=v-this.a/this.b,this.a=null):this.c=v)),null===this.a&&null!==this.c&&(a=this.B(!1),0!=a&&J.push([this,a])));a=this.l();if(null===a)return!1;for(var b=this.A,c=this.C,d=0;d<b.length;++d){for(var e=b[d],
n=!1,q=0;q<c[d].length;++q){var g=c[d][q],h=g[0];if(null!==h){var f=g[2];var l=g[4].length,m=g[4][l-1]-f;f=0==m?g[5][l-1]:a<f?!g[9]||g[9][0]&1?g[5][0]:g[9][1]:a>=f+g[3]?!g[9]||g[9][0]&2?0==g[3]%m?g[5][l-1]:V(g[3]%m,g):g[9][1]:V((a-f)%m,g);0==h?(e._ks.mpath=g[8],e._ks.transform[h]=f,n=!0):14>=h?(e._ks.transform[h]=f,n=!0):(f=fa(g[1]&240,f),g[1]&1?e.setAttribute(h,f):e.style[h]=f)}}if(n){n=e;Z(n);q=n._ks.transform;g="";if(h=n._ks.mpath)l=q[0],0>l&&(l=0),100<l&&(l=100),l=l*h[2]/100,f=h[1].getPointAtLength(l),
g="translate("+f.x+","+f.y+") ",h[0]&&(.5>l?(l=f,f=h[1].getPointAtLength(.5)):l=h[1].getPointAtLength(l-.5),g+="rotate("+180*Math.atan2(f.y-l.y,f.x-l.x)/Math.PI+") ");for(h=1;h<q.length;++h)f=q[h],f!=(10==h||11==h?1:0)&&(g+=" "+ka[h]+"(",g=2>=h?g+(1==h?f+",0":"0,"+f):13<=h?g+(13==h?f+",0":"0,"+f):10<=h?g+(10==h?f+",1":"1,"+f):g+f,g+=")");n.setAttribute("transform",g)}la&&e.setAttribute("opacity",e.getAttribute("opacity"))}return"running"==this.m()},I:function(){!1!==this.h.autoremove&&"finished"==
this.m()&&P(this)},D:function(){if(!this.F){this.F=!0;for(var a=this.A,b=this.C,c=0;c<a.length;++c)for(var d=a[c],e=0;e<b[c].length;++e)14>=b[c][e][0]&&Z(d)}},u:function(a){if("number"==typeof a)return[a,0];if(!r(this.h.markers)||!r(this.h.markers[a]))throw Error("Invalid marker: "+a);a=this.h.markers[a];return r(a.time)?[+a.time,+(a.dur||0)]:[+a,0]},play:function(a){r(a)&&null!==a&&(a=this.u(a)[0],H(a),0>this.b&&a<this.g&&(a=this.g),0<this.b&&a>this.f&&(a=this.f),this.w(a,!0));if(!this.j)throw Q;
a=this.l();if(0<this.b&&(null===a||a>=this.f||a<this.g))this.a=this.g;else if(0>this.b&&(null===a||a<=this.g||a>this.f)){if(Infinity==this.f)throw Error("Cannot seek to Infinity");this.a=this.f}else 0==this.b&&null===a&&(this.a=this.g);if(null===this.a)return this;this.c=null;this.o=!0;this.D();N();return this},pause:function(a){if(!this.j)throw Q;r(a)&&(a=this.u(a)[0],H(a));if("paused"!=this.m()){L();var b=this.l();if(null===b)if(0<=this.b)this.a=this.g;else{if(Infinity==this.f)throw Error("Cannot seek to Infinity");
this.a=this.f}null!==this.c&&null===this.a&&(this.a=b);this.c=null;this.o=!1;this.B(!1);this.D();N()}r(a)&&this.w(a,!0);return this},range:function(a,b){if(0==arguments.length)return{"in":this.g,out:this.f};var c=this.u(a)[0],d=this.v;r(b)&&(d=this.u(b)[0]);H(c);if(0>c||0>d||c>=d||isNaN(d))throw Error("Invalid range");var e=this.m();this.g=c;this.f=d;"finished"==e&&"running"==this.m()&&this.play();return this},loop:function(a){if(!r(a))return{count:this.i};this.i=!0===a?Infinity:Math.floor(a);if(0>
this.i||isNaN(this.i))this.i=0;return this},l:function(){return null!==this.a?this.a:null===this.c?null:(v-this.c)*this.b},w:function(a,b){b&&L();null!==a&&(this.D(),null!==this.a||null===this.c||0==this.b?(this.a=a,O(!1)):this.c=v-a/this.b,this.j||(this.c=null),this.s=null,this.B(!0),N())},G:function(){return this.l()},time:function(a){if(r(a)){if(!this.j)throw Q;a=this.u(a)[0];H(a);this.w(a,!0);return this}return this.G()},m:function(){var a=this.l();return this.o?"running":null===a?"idle":null===
this.c?"paused":0<this.b&&a>=this.f||0>this.b&&a<=this.g?"finished":"running"},state:function(){return this.m()},duration:function(){return this.v},H:function(a){H(a);L();var b=this.l();this.b=a;null!==b&&this.w(b,!1)},rate:function(a){return r(a)?(this.H(a),this):this.b},markers:function(a){return r(a)?(this.h.markers=R(a),this):r(this.h.markers)?this.h.markers:{}},marker:function(a){return r(this.h.markers)?this.h.markers[a]:void 0},_cancel:function(){if(!this.j||"idle"==this.m())return this;this.c=
this.a=null;this.o=!1;return this}};return{version:"1.2.0",animate:function(){var a={};1==arguments.length%2&&(a=R(arguments[arguments.length-1]));a=new aa(a);for(var b=arguments,c=0,d=0;d<b.length-1;d+=2){var e=b[d];var n=e instanceof Element?e:document.getElementById(e.substring(1));if(!n)throw Error("Invalid target: "+e);e=n;n=b[d+1];e._ks||(e._ks={});for(var q=[],g=0;g<n.length;++g){var h=n[g],f=I(h,"p","property");if("string"!=typeof f||-1!=f.indexOf("-")||""===f||!(0<T[f]||0<=ca.indexOf(f)))throw Error("Invalid property: "+
f);var l=ca.indexOf(f);""!==f&&0<=l&&(f=l);l=S(f);var m=I(h,"t","times");if(!m||2>m.length)throw Error("Not enough times");m=m.slice();if(!isFinite(m[0])||0>m[0])throw Error("Invalid time: "+m[0]);for(var B=1;B<m.length;++B)if(!isFinite(m[B])||0>m[B]||m[B]<m[B-1])throw Error("Invalid time: "+m[B]);B=m[0];var v=m[m.length-1]-B,y=h.iterations||0;1>y&&(y=1);v*=y;c<v+B&&(c=v+B);var u=I(h,"v","values");if(!u||u.length!=m.length)throw Error("Values do not match times");u=u.slice();for(var C=f,k=u,w=S(C)&
240,p=0;p<k.length;++p)if(96==w){for(var G=k[p].substring(6,k[p].length-2).match(/[A-DF-Za-df-z][-+0-9eE., ]*/ig),A=[],t=0;t<G.length;++t){A.push(G[t][0]);for(var z=1<G[t].trim().length?G[t].substring(1).split(","):[],F=0;F<z.length;++F)z[F]=parseFloat(z[F]);A.push(z)}k[p]=A}else if(48==w)x(k[p],"#")?(G=9==k[p].length,k[p]=parseInt(k[p].substring(1),16),G||(k[p]=256*k[p]|255)):x(k[p],"url(")||"none"==k[p]||(console.warn("unsupported color: "+k[p]),k[p]=0);else if(80==w){G=k;A=p;t=k[p];if("none"==
t)t=[0];else{z=[];for(var D=t.indexOf("(");0<D;)if(F=U.indexOf(t.substring(0,D)),0<=F){z.push(F);var E=t.indexOf(") ");0>E&&(E=t.length-1);D=t.substring(D+1,E).split(" ");5==F?(z.push(parseFloat(D[0])),z.push(parseFloat(D[1])),z.push(parseFloat(D[2])),z.push(ja(D[3]))):1==F?z.push(D[0]):z.push(parseFloat(D[0]));t=t.substring(E+1).trim();D=t.indexOf("(")}else break;t=z}G[A]=t}else 64==w?"none"!=k[p]?/^[0-9 .]*$/.test(k[p])?k[p]=Y(k[p]," "):(console.warn("unsupported value: "+k[p]),k[p]=[0]):k[p]=[0]:
32==w?(H(k[p]),k[p]=parseFloat(k[p])):0===C&&(k[p]=parseFloat(k[p]));C=I(h,"e","easing");k=m.length;for(C||(C=[]);C.length<k;)C.push([1,0,0,.58,1]);for(k=0;k<C.length;++k)C[k]=ia(C[k]);l=[f,l,B,v,m,u,C,y];m=I(h,"mp","motionPath");r(m)&&0===f&&(l[8]=[],l[8][0]=h.motionRotate,f=document.createElementNS("http://www.w3.org/2000/svg","path"),m||(m="M0,0"),f.setAttribute("d",m),l[8][1]=f,l[8][2]=f.getTotalLength());h=I(h,"f","fill");r(h)&&(l[9]=h.slice());q.push(l)}0<q.length&&(a.A.push(e),a.C.push(q))}a.v=
c;a.g=0;a.f=a.v;ba(a);return a},add:ba,remove:P,removeAll:function(){for(var a=w.length-1;0<=a;--a)P(w[a]);return this},timelines:function(){return w.slice()},globalPlay:function(){u&&(W=u-(new Date).getTime(),u=void 0,N());return this},globalPause:function(){u||(u=v,O(!1));return this},globalState:function(){return u?"paused":"running"}}}();
]]>
    </script>
    <script>
        <![CDATA[if(KeyshapeJS.version.indexOf('1.')!=0)throw Error('Expected KeyshapeJS v1.*.*');window.ks=document.ks=KeyshapeJS;(function(ks){
var tl=ks.animate("#_a0",[{p:'fill',t:[0,500],v:['#272f38','#1a75bb'],e:[[0],[0]]}],
"#_a1",[{p:'fill',t:[0,500],v:['#272f38','#1a75bb'],e:[[0],[0]]}],
"#_a2",[{p:'fill',t:[1000,1500],v:['#272f38','#1a75bb'],e:[[0],[0]]}],
"#_a3",[{p:'fill',t:[1000,1500],v:['#272f38','#1a75bb'],e:[[0],[0]]}],
"#_a4",[{p:'fill',t:[2000,2500],v:['#272f38','#1a75bb'],e:[[0],[0]]}],
"#_a5",[{p:'fill',t:[2000,2500],v:['#272f38','#1a75bb'],e:[[0],[0]]}],
"#_a6",[{p:'fill',t:[3000,3500],v:['#272f38','#1a75bb'],e:[[0],[0]]}],
"#_a7",[{p:'fill',t:[4000,4500],v:['#272f38','#1a75bb'],e:[[0],[0]]}],
"#_a8",[{p:'fill',t:[5000,5500],v:['#272f38','#1a75bb'],e:[[0],[0]]}],
"#_a9",[{p:'fill',t:[6000,6500],v:['#272f38','#1a75bb'],e:[[0],[0]]}],
"#_a10",[{p:'fill',t:[7000,7500],v:['#272f38','#1a75bb'],e:[[0],[0]]}],
"#_a11",[{p:'fill',t:[8000,8500],v:['#272f38','#1a75bb'],e:[[0],[0]]}],
"#_a12",[{p:'fill',t:[500,1000],v:['#272f38','#1a75bb'],e:[[0],[0]]}],
"#_a13",[{p:'fill',t:[500,1000],v:['#272f38','#1a75bb'],e:[[0],[0]]}],
"#_a14",[{p:'fill',t:[1500,2000],v:['#272f38','#1a75bb'],e:[[0],[0]]}],
"#_a15",[{p:'fill',t:[1500,2000],v:['#272f38','#1a75bb'],e:[[0],[0]]}],
"#_a16",[{p:'fill',t:[2500,3000],v:['#272f38','#1a75bb'],e:[[0],[0]]}],
"#_a17",[{p:'fill',t:[3500,4000],v:['#272f38','#1a75bb'],e:[[0],[0]]}],
"#_a18",[{p:'fill',t:[4500,5000],v:['#272f38','#1a75bb'],e:[[0],[0]]}],
"#_a19",[{p:'fill',t:[5500,6000],v:['#272f38','#1a75bb'],e:[[0],[0]]}],
"#_a20",[{p:'fill',t:[6500,7000],v:['#272f38','#1a75bb'],e:[[0],[0]]}],
"#_a21",[{p:'fill',t:[7500,8000],v:['#272f38','#1a75bb'],e:[[0],[0]]}],
"#_a22",[{p:'fill',t:[8500,9000],v:['#272f38','#1a75bb'],e:[[0],[0]]}],
"#_a23",[{p:'visibility',t:[2500,9100],v:['visible','hidden'],e:[[3,1],[3,1]],fill:[2,'hidden']}],
"#_a24",[{p:'visibility',t:[2000,9100],v:['visible','hidden'],e:[[3,1],[3,1]],fill:[2,'hidden']}],
"#_a25",[{p:'visibility',t:[8900,9100],v:['visible','hidden'],e:[[3,1],[3,1]],fill:[2,'hidden']}],
"#_a26",[{p:'visibility',t:[2500,9017,9100],v:['visible','visible','hidden'],e:[[3,1],[3,1],[3,1]],fill:[2,'hidden']}],
"#_a27",[{p:'visibility',t:[8800,9100],v:['visible','hidden'],e:[[3,1],[3,1]],fill:[2,'hidden']}],
{autoremove:false}).range(0,9000);
if(document.location.search.substr(1).split('&').indexOf('global=paused')>=0)ks.globalPause();})(KeyshapeJS);
]]>
    </script>
</svg>